<?xml version="1.0" standalone="no"?>
<!DOCTYPE svg PUBLIC "-//W3C//DTD SVG 20010904//EN"
 "http://www.w3.org/TR/2001/REC-SVG-20010904/DTD/svg10.dtd">
<svg version="1.0" xmlns="http://www.w3.org/2000/svg"
 width="500.000000pt" height="500.000000pt" viewBox="0 0 500.000000 500.000000"
 preserveAspectRatio="xMidYMid meet">

<g transform="translate(0.000000,500.000000) scale(0.100000,-0.100000)"
fill="#000000" stroke="none">
<path d="M815 3503 c-154 -19 -285 -58 -410 -121 -165 -84 -290 -238 -325
-402 -18 -85 -8 -336 23 -575 41 -307 54 -371 89 -438 62 -115 205 -212 382
-257 111 -28 522 -70 689 -70 305 0 539 74 684 215 73 72 87 111 103 280 21
226 6 693 -26 805 -24 84 -70 156 -151 236 -173 171 -378 277 -618 318 -83 15
-353 20 -440 9z m149 -28 c26 -9 45 -11 57 -4 32 17 94 10 130 -14 30 -20 44
-23 102 -19 76 5 138 -13 186 -54 25 -21 30 -22 35 -8 5 13 15 15 48 11 48 -6
84 -31 113 -74 12 -19 35 -35 59 -43 52 -16 83 -49 97 -104 9 -35 16 -46 31
-46 49 0 108 -62 108 -114 0 -8 16 -30 35 -47 45 -41 69 -105 62 -165 -8 -74
-69 -185 -141 -256 -137 -135 -309 -204 -570 -229 -378 -35 -920 92 -1108 260
-88 79 -118 182 -83 280 12 34 12 51 4 84 -9 31 -8 53 0 85 14 49 72 119 107
128 13 3 24 13 24 21 0 67 151 197 205 177 10 -4 27 3 43 18 41 39 61 46 152
53 62 5 93 12 114 27 32 23 99 47 131 47 11 0 38 -6 59 -14z m-745 -964 c10
-7 8 -12 -10 -25 -26 -18 -59 -21 -59 -7 0 10 39 41 50 41 3 0 11 -4 19 -9z
m1753 -38 c18 -16 25 -43 11 -43 -10 0 -53 42 -53 52 0 13 22 9 42 -9z m-1103
-237 c10 -12 8 -19 -9 -36 -24 -24 -53 -23 -58 3 -8 39 42 63 67 33z m871 -25
c11 -22 16 -42 11 -45 -11 -7 -61 50 -61 70 0 28 30 13 50 -25z m-1500 -30 c0
-10 -9 -26 -20 -36 -17 -16 -20 -16 -20 -2 0 9 4 28 10 42 11 28 30 25 30 -4z
m317 -42 c8 -16 9 -27 2 -34 -13 -12 -39 20 -39 48 0 25 22 17 37 -14z m736
-97 c-8 -22 -44 -62 -56 -62 -14 0 1 61 20 82 19 21 45 7 36 -20z m-433 -178
c0 -22 -18 -16 -36 11 -22 33 -7 56 18 26 10 -13 18 -29 18 -37z m840 -8 c0
-20 -39 -66 -56 -66 -19 0 -18 30 2 58 17 24 54 30 54 8z m-1266 -48 c5 -9 7
-20 3 -24 -11 -11 -57 14 -57 31 0 21 39 16 54 -7z"/>
<path d="M758 3344 c-31 -16 -38 -30 -10 -19 9 4 37 13 62 20 l45 13 -35 1
c-19 0 -47 -7 -62 -15z"/>
<path d="M1424 3325 c-18 -13 -17 -14 17 -15 19 0 57 -11 82 -24 51 -25 60
-21 25 11 -49 44 -90 54 -124 28z"/>
<path d="M1239 3176 c12 -13 26 -36 30 -52 5 -19 14 -28 24 -26 9 1 33 -4 53
-13 20 -8 39 -14 41 -12 9 9 -40 57 -58 57 -11 0 -35 16 -53 35 -19 19 -39 35
-46 35 -9 0 -5 -9 9 -24z"/>
<path d="M364 3126 c-30 -30 -34 -40 -33 -82 l0 -49 14 43 c15 49 36 76 80
103 l30 19 -28 0 c-20 0 -40 -11 -63 -34z"/>
<path d="M1235 3048 c-28 -16 -228 -173 -243 -190 -9 -11 -8 -33 3 -96 8 -45
19 -90 25 -102 13 -24 51 -35 88 -25 15 5 59 9 97 9 56 1 82 7 128 30 48 24
65 28 102 22 41 -5 50 -2 91 29 25 19 63 38 83 41 66 11 67 14 40 96 -22 66
-27 73 -53 76 -16 2 -33 -1 -39 -7 -19 -19 -34 -12 -47 19 -7 17 -26 42 -43
56 -25 21 -38 25 -65 20 -25 -4 -43 0 -63 14 -30 22 -73 25 -104 8z"/>
<path d="M1850 2919 c67 -54 95 -63 69 -21 -14 23 -50 42 -77 42 -13 0 -12 -5
8 -21z"/>
<path d="M389 2898 c-55 -61 -89 -112 -89 -134 0 -13 5 -24 10 -24 6 0 10 6
10 14 0 8 33 49 73 90 71 73 73 76 45 76 -17 0 -37 -9 -49 -22z"/>
<path d="M1546 2589 c-43 -34 -30 -39 36 -13 77 30 81 34 31 34 -26 0 -50 -8
-67 -21z"/>
<path d="M1121 2381 c-10 -7 -1 -11 31 -16 55 -8 118 2 97 16 -18 11 -110 11
-128 0z"/>
<path d="M2377 3058 c-19 -14 -187 -476 -187 -514 0 -44 68 -51 84 -8 6 16 7
16 25 -1 45 -40 145 -39 209 3 13 9 43 16 66 17 77 1 125 48 167 163 12 34 36
42 46 16 3 -9 -1 -37 -11 -63 -24 -67 -21 -98 13 -132 35 -34 70 -37 124 -10
30 15 38 16 48 5 29 -35 130 -29 173 11 35 32 104 35 131 5 9 -10 31 -24 49
-29 45 -15 176 -7 187 10 5 8 25 61 45 119 39 109 65 150 96 150 24 0 23 -15
-7 -98 -31 -85 -32 -135 -5 -162 37 -37 115 -38 160 -2 22 17 24 17 68 -5 53
-27 110 -29 174 -8 73 25 125 87 157 188 9 25 18 37 31 37 30 0 33 -17 11 -76
-28 -74 -27 -100 8 -135 34 -33 75 -38 122 -13 28 14 34 14 70 0 46 -18 146
-21 204 -5 72 20 165 139 140 179 -13 21 -54 11 -69 -17 -8 -16 -26 -39 -40
-52 l-26 -24 0 26 c0 15 -14 56 -32 91 -29 60 -30 65 -15 81 22 22 21 48 -1
68 -42 38 -79 13 -127 -83 -15 -30 -42 -69 -60 -87 -18 -18 -36 -46 -40 -63
-7 -33 -44 -65 -58 -51 -5 5 2 41 17 85 32 93 25 120 -41 151 -25 12 -42 27
-43 37 -1 45 -63 63 -95 28 -14 -15 -16 -29 -11 -60 5 -32 0 -56 -25 -115 -17
-41 -42 -84 -56 -95 -68 -53 -172 -40 -173 22 0 14 8 16 53 11 90 -9 147 38
147 121 0 94 -134 134 -209 62 -15 -15 -38 -56 -51 -94 -31 -91 -58 -138 -87
-151 -36 -17 -39 7 -9 96 32 96 32 124 3 158 -17 20 -32 27 -60 27 -20 0 -37
3 -37 6 0 3 10 36 22 73 18 56 19 70 9 83 -17 20 -45 21 -64 2 -7 -8 -33 -70
-57 -137 -71 -205 -100 -275 -118 -291 -28 -25 -58 -30 -75 -13 -14 13 -12 25
16 110 30 90 33 95 59 95 32 0 70 33 62 54 -3 8 -16 17 -30 20 -29 8 -29 8 -4
80 22 66 15 96 -24 96 -31 0 -42 -15 -69 -96 -21 -59 -27 -69 -56 -79 -17 -6
-36 -17 -41 -25 -11 -18 6 -50 26 -50 9 0 14 -6 12 -12 -3 -7 -13 -37 -24 -67
-19 -55 -52 -88 -78 -78 -12 5 -11 12 5 44 29 58 25 118 -10 154 -18 17 -41
29 -58 30 -113 5 -140 -20 -194 -174 -26 -77 -64 -126 -82 -108 -8 8 -5 27 11
73 12 35 22 75 22 91 0 31 -29 64 -68 78 -15 5 -34 24 -42 42 -12 25 -22 33
-47 35 -39 4 -57 -23 -50 -77 6 -47 -39 -168 -71 -189 -12 -8 -24 -13 -27 -11
-2 2 2 24 8 47 9 36 9 51 -5 89 -17 46 -16 46 9 80 18 24 28 51 31 86 4 47 1
55 -24 80 -33 33 -62 41 -119 34 -33 -5 -44 -3 -49 8 -7 18 -36 19 -59 3z
m151 -126 c5 -37 -23 -62 -63 -55 -25 4 -38 0 -54 -16 -40 -40 -19 -101 35
-105 42 -4 54 -13 54 -42 0 -28 -2 -29 -42 -8 -19 10 -48 14 -74 12 -24 -2
-44 -3 -44 -2 0 20 78 206 93 222 30 32 90 28 95 -6z m599 -143 c16 -16 3 -60
-21 -69 -45 -17 -54 -48 -31 -102 5 -13 1 -20 -16 -27 -54 -20 -61 9 -28 110
30 90 63 121 96 88z m861 -12 c5 -25 -16 -47 -44 -47 -26 0 -31 18 -13 51 13
25 52 22 57 -4z m552 -113 c10 -29 9 -39 -4 -59 -10 -15 -26 -25 -40 -25 -36
0 -38 12 -5 32 29 18 31 23 26 59 -6 46 7 43 23 -7z m-2097 -38 c14 -11 15
-15 4 -25 -8 -6 -28 -14 -45 -17 -34 -7 -50 11 -38 41 7 19 55 19 79 1z"/>
<path d="M2650 2280 c0 -11 6 -20 14 -20 24 0 6 -41 -23 -52 -23 -9 -24 -11
-9 -22 15 -11 15 -15 -2 -54 -20 -45 -48 -56 -57 -22 -3 11 -14 20 -24 20 -27
0 -25 -45 3 -64 50 -35 98 -10 123 64 12 37 22 50 36 50 20 0 27 26 8 32 -7 2
-9 13 -5 25 5 17 16 23 49 25 30 2 43 8 45 21 3 15 -6 17 -77 17 -74 0 -81 -2
-81 -20z"/>
<path d="M3158 2258 c-13 -38 -17 -42 -49 -42 -30 -1 -37 -6 -56 -45 -13 -25
-27 -49 -33 -55 -16 -16 -21 -1 -10 29 14 38 -9 75 -49 75 -32 0 -53 -20 -74
-72 -21 -51 -39 -50 -31 2 8 47 -7 70 -43 70 -42 0 -61 -18 -79 -75 -17 -52
-17 -55 1 -75 21 -24 53 -26 81 -5 25 19 58 19 74 0 7 -8 25 -15 40 -15 15 0
33 7 40 15 16 19 54 19 70 0 8 -10 30 -13 77 -12 58 3 69 6 89 31 23 26 33 66
17 66 -5 0 -20 -14 -35 -32 -14 -18 -30 -30 -33 -26 -4 4 7 49 24 100 37 110
36 108 12 108 -14 0 -23 -12 -33 -42z m-338 -93 c0 -7 -7 -15 -15 -19 -8 -3
-15 -17 -15 -31 0 -16 -6 -25 -15 -25 -8 0 -15 2 -15 4 0 10 24 73 33 83 11
15 27 8 27 -12z m150 6 c0 -10 -7 -22 -16 -25 -11 -4 -14 -13 -10 -31 5 -18 2
-25 -9 -25 -19 0 -19 21 -1 65 16 38 36 47 36 16z m150 0 c0 -24 -24 -71 -36
-71 -17 0 -17 3 0 45 14 32 36 48 36 26z"/>
<path d="M3365 2291 c-13 -22 -75 -204 -75 -221 0 -22 15 -34 31 -24 6 4 30 8
53 9 22 1 59 7 80 13 31 8 43 8 62 -5 16 -10 36 -13 61 -9 21 3 43 6 48 6 6 0
58 -2 117 -4 94 -3 109 -1 124 15 18 20 56 17 104 -8 56 -29 124 -2 154 61 16
35 44 52 32 20 -25 -64 -6 -101 46 -90 15 3 28 1 28 -4 0 -6 -7 -10 -15 -10
-20 0 -47 -44 -39 -64 10 -25 49 -37 79 -26 15 6 32 25 41 45 8 19 26 41 42
49 50 26 93 88 71 102 -6 3 -24 -10 -41 -30 -17 -21 -32 -35 -34 -33 -2 2 5
30 16 62 11 31 17 61 14 66 -14 23 -34 5 -49 -43 -18 -54 -40 -87 -51 -76 -3
4 2 31 12 62 10 31 15 59 11 62 -15 15 -35 -8 -57 -65 -12 -34 -28 -61 -36
-61 -11 0 -11 7 1 40 12 35 12 41 -1 53 -9 6 -27 23 -40 36 -20 19 -26 21 -39
11 -8 -7 -13 -21 -10 -34 3 -12 -5 -38 -18 -61 -19 -34 -28 -40 -60 -43 -29
-3 -37 0 -37 13 0 11 5 15 15 11 21 -8 63 13 70 36 10 28 -4 57 -30 64 -40 10
-65 -5 -85 -52 -11 -25 -26 -44 -35 -44 -18 0 -18 8 0 40 19 33 19 49 0 57
-23 8 -55 -26 -55 -57 0 -15 -9 -38 -20 -51 -23 -29 -24 -28 -5 41 8 32 11 58
5 64 -16 16 -37 -2 -44 -39 -10 -51 -27 -85 -43 -85 -17 0 -16 8 2 60 19 54
19 70 0 70 -9 0 -24 -20 -35 -47 -28 -66 -35 -78 -53 -81 -12 -2 -8 16 19 93
40 113 40 115 15 115 -15 0 -26 -19 -52 -91 -18 -50 -39 -98 -47 -106 -18 -17
-74 -13 -80 6 -3 10 1 12 18 8 28 -7 56 6 70 34 16 30 -11 69 -49 69 -31 0
-49 -17 -74 -72 -9 -21 -21 -38 -27 -38 -14 0 -13 4 12 81 21 66 21 69 3 89
-13 15 -31 20 -66 20 -26 0 -50 -4 -54 -9z m80 -41 c4 -6 -1 -33 -10 -61 -13
-37 -21 -49 -32 -45 -8 3 -21 6 -28 6 -12 0 -12 7 1 42 8 23 19 47 25 55 14
16 35 17 44 3z m126 -93 c-16 -16 -26 0 -10 19 9 11 15 12 17 4 2 -6 -1 -17
-7 -23z m462 2 c-17 -17 -37 -1 -22 17 8 10 15 12 23 4 7 -7 7 -13 -1 -21z
m-639 -58 c7 -11 -22 -23 -35 -15 -5 3 -7 10 -4 15 8 12 32 12 39 0z m856
-100 c0 -12 -20 -25 -27 -18 -7 7 6 27 18 27 5 0 9 -4 9 -9z"/>
<path d="M3770 2285 c-10 -11 -10 -19 -2 -27 15 -15 44 -2 40 19 -4 23 -22 27
-38 8z"/>
</g>
</svg>
